<?xml version="1.0" standalone="no"?>
<!DOCTYPE svg PUBLIC "-//W3C//DTD SVG 20010904//EN"
 "http://www.w3.org/TR/2001/REC-SVG-20010904/DTD/svg10.dtd">
<svg version="1.0" xmlns="http://www.w3.org/2000/svg"
 width="300.000000pt" height="300.000000pt" viewBox="0 0 300.000000 300.000000"
 preserveAspectRatio="xMidYMid meet">
<metadata>
Created by potrace 1.10, written by Peter Selinger 2001-2011
</metadata>
<g transform="translate(0.000000,300.000000) scale(0.100000,-0.100000)"
fill="#000000" stroke="none">
<path d="M1350 2749 c0 -4 20 -54 44 -111 43 -100 45 -103 77 -103 32 0 33 2
77 108 24 60 42 110 41 112 -2 2 -16 1 -31 -2 -22 -4 -31 -17 -54 -79 -16 -40
-31 -70 -35 -66 -3 4 -18 37 -34 74 -23 57 -31 67 -56 70 -16 3 -29 1 -29 -3z"/>
<path d="M919 2703 l-96 -45 58 -125 c31 -69 60 -127 62 -130 4 -4 42 12 55
22 2 2 -6 22 -18 44 -11 23 -18 46 -15 50 3 5 30 19 60 32 60 25 61 27 42 52
-11 16 -16 16 -65 -8 -28 -14 -56 -25 -60 -25 -5 0 -16 16 -25 35 l-17 35 33
14 c17 8 49 21 70 30 40 18 44 24 25 48 -12 14 -24 10 -109 -29z"/>
<path d="M1153 2710 c-45 -20 -52 -30 -29 -49 10 -8 20 -8 42 4 37 19 68 19
84 0 16 -20 11 -25 -42 -36 -53 -13 -78 -34 -78 -69 0 -57 81 -81 133 -40 17
13 27 16 29 8 3 -7 14 -9 30 -5 l25 7 -18 77 c-28 120 -77 148 -176 103z m117
-125 c0 -46 -73 -60 -88 -17 -4 12 49 41 76 42 6 0 12 -11 12 -25z"/>
<path d="M1641 2702 c-33 -33 -46 -70 -37 -105 23 -95 157 -125 216 -50 31 40
27 105 -8 144 -24 27 -37 33 -85 37 -52 4 -58 2 -86 -26z m123 -38 c40 -40 1
-122 -52 -109 -15 3 -33 14 -40 23 -14 18 -9 66 9 89 15 18 64 17 83 -3z"/>
<path d="M1885 2587 c-21 -51 -39 -97 -42 -103 -3 -9 46 -40 52 -32 1 2 12 29
25 61 24 62 48 82 84 73 18 -4 26 0 34 19 12 27 6 31 -45 26 -14 -1 -23 4 -23
12 0 8 -11 19 -24 25 -24 11 -25 8 -61 -81z"/>
<path d="M2123 2664 c-9 -24 10 -49 38 -49 27 0 37 28 19 50 -17 20 -49 19
-57 -1z"/>
<path d="M2045 2512 c-61 -106 -60 -104 -34 -120 26 -17 26 -17 87 91 l50 87
-27 14 -27 14 -49 -86z"/>
<path d="M2226 2538 c-12 -17 -18 -19 -29 -9 -21 16 -45 -13 -28 -33 10 -12 5
-25 -23 -66 -20 -29 -36 -61 -36 -72 0 -23 52 -78 73 -78 23 0 27 35 6 49 -26
15 -24 26 13 77 29 41 33 43 49 28 21 -18 49 -12 49 10 0 9 -9 20 -21 26 -19
11 -19 13 -5 29 20 22 20 31 -1 47 -24 18 -30 17 -47 -8z"/>
<path d="M670 2471 c-5 -11 -10 -27 -10 -37 0 -14 -3 -14 -15 -4 -13 10 -19
10 -35 -5 -22 -20 -30 -6 92 -148 l33 -39 25 20 24 20 -47 52 c-52 57 -57 78
-27 105 19 17 19 19 4 37 -22 23 -31 23 -44 -1z"/>
<path d="M2292 2360 c-84 -52 -68 -165 30 -216 36 -19 38 -18 38 11 0 14 -5
25 -10 25 -23 0 -60 50 -60 80 0 16 3 30 7 30 4 0 33 -28 64 -62 49 -55 58
-61 73 -49 9 7 21 30 27 50 29 98 -83 185 -169 131z m107 -54 c18 -19 22 -31
17 -52 l-7 -27 -41 40 c-22 23 -37 46 -34 52 12 18 41 12 65 -13z"/>
<path d="M512 2329 c-12 -19 -9 -25 42 -73 31 -28 56 -56 56 -62 0 -21 -32
-54 -52 -54 -12 0 -44 19 -71 42 -39 32 -53 39 -66 31 -29 -18 -17 -45 42 -91
44 -35 67 -46 93 -46 42 0 85 39 87 78 1 15 7 24 14 22 6 -3 19 4 29 15 15 17
16 21 3 34 -22 22 -153 125 -159 125 -3 0 -11 -9 -18 -21z"/>
<path d="M2555 2059 c-60 -26 -116 -49 -122 -49 -20 0 -16 -13 27 -104 30 -62
49 -90 74 -105 91 -57 216 12 216 119 0 39 -59 190 -74 189 -6 0 -60 -23 -121
-50z m128 -79 c20 -61 8 -104 -34 -125 -61 -32 -109 -10 -140 63 -11 24 -18
46 -17 47 21 12 147 64 159 64 11 1 21 -16 32 -49z"/>
<path d="M353 2070 c-39 -24 -63 -67 -63 -116 0 -51 53 -104 104 -104 51 0 81
17 105 60 36 65 20 135 -39 165 -39 20 -68 19 -107 -5z m94 -62 c43 -40 18
-98 -43 -98 -34 0 -64 28 -64 60 0 9 7 26 16 38 20 28 61 29 91 0z"/>
<path d="M167 1863 c-5 -24 2 -36 50 -83 37 -36 51 -56 42 -59 -8 -3 -41 -14
-73 -26 -51 -17 -61 -25 -68 -49 -4 -17 -6 -31 -5 -32 1 -2 47 13 102 32 93
33 103 34 148 23 54 -13 53 -13 62 22 6 25 3 27 -41 38 -36 9 -66 29 -129 87
l-83 74 -5 -27z"/>
<path d="M2605 1741 c-59 -25 -83 -118 -46 -178 24 -38 36 -41 50 -14 8 14 7
22 -4 31 -20 17 -19 75 1 95 23 23 30 8 39 -81 7 -81 13 -86 66 -58 56 28 71
110 33 170 -26 39 -90 55 -139 35z m109 -84 c6 -18 6 -35 -2 -52 -15 -33 -29
-32 -36 5 -19 98 -20 91 6 81 13 -4 27 -20 32 -34z"/>
<path d="M2670 1467 c-110 -42 -120 -49 -120 -83 0 -17 21 -31 106 -73 58 -28
108 -51 110 -51 2 0 4 13 4 29 0 25 -7 31 -70 60 -38 18 -70 36 -70 40 0 4 34
18 75 31 74 23 75 24 75 57 0 18 -1 32 -2 32 -2 -1 -50 -20 -108 -42z"/>
<path d="M240 1429 c-74 -3 -138 -7 -142 -8 -4 0 -5 -13 -4 -28 l3 -28 134 3
c74 2 142 6 152 8 20 6 25 65 5 62 -7 -1 -74 -5 -148 -9z"/>
<path d="M234 1296 c-27 -27 -34 -42 -34 -74 0 -107 124 -162 195 -86 40 43
40 110 -1 171 -15 23 -17 24 -32 10 -14 -15 -14 -19 3 -51 15 -28 17 -41 9
-63 -18 -52 -37 -34 -52 50 -12 66 -17 77 -34 77 -11 0 -35 -15 -54 -34z m62
-81 c10 -53 9 -56 -10 -53 -11 2 -27 15 -35 29 -13 24 -13 29 2 53 10 14 21
26 25 26 4 0 12 -25 18 -55z"/>
<path d="M2580 1247 c-39 -20 -70 -74 -70 -123 0 -46 9 -58 34 -48 11 4 16 19
16 49 0 41 21 75 48 75 16 0 15 -12 -9 -92 -11 -39 -18 -72 -15 -75 9 -9 74
-5 95 7 30 15 61 69 61 103 0 43 -28 87 -65 103 -42 17 -63 17 -95 1z m98 -69
c28 -28 4 -98 -34 -98 -17 0 -17 7 -2 65 13 48 17 52 36 33z"/>
<path d="M380 1078 c-87 -40 -100 -53 -100 -100 0 -44 17 -84 49 -112 20 -18
23 -18 37 -4 14 14 13 18 -10 43 -26 28 -31 49 -20 79 9 24 23 19 36 -11 25
-58 48 -83 78 -83 16 0 36 7 44 16 31 30 14 112 -28 132 -11 6 -15 11 -8 11 6
1 12 7 12 14 0 7 -6 20 -12 29 -12 14 -20 12 -78 -14z m70 -68 c22 -22 25 -37
11 -59 -13 -20 -37 -7 -56 30 -14 26 -15 33 -3 40 19 13 26 11 48 -11z"/>
<path d="M2461 1012 c-7 -14 -8 -28 -4 -32 23 -19 267 -120 273 -113 4 4 10
17 13 28 6 18 -11 28 -132 81 l-139 61 -11 -25z"/>
<path d="M2435 910 c-41 -17 -77 -67 -82 -114 -5 -42 -3 -48 30 -81 29 -29 42
-35 76 -35 49 0 86 22 108 63 33 65 10 137 -52 163 -38 16 -51 16 -80 4z m69
-71 c15 -12 26 -30 26 -45 0 -24 -31 -64 -50 -64 -18 0 -70 30 -70 39 0 5 -2
16 -5 23 -8 19 32 68 54 68 10 0 30 -9 45 -21z"/>
<path d="M473 850 c-88 -70 -96 -130 -26 -175 18 -11 32 -22 33 -25 0 -3 -18
-16 -40 -30 -46 -28 -46 -30 -22 -59 17 -20 17 -20 135 68 65 49 119 91 120
93 1 2 -6 14 -15 26 l-16 24 -55 -41 c-60 -45 -85 -50 -111 -22 -27 29 -17 51
45 100 55 44 56 46 42 68 -9 13 -18 23 -22 23 -3 -1 -34 -23 -68 -50z"/>
<path d="M2215 780 c-18 -20 -18 -21 20 -60 36 -37 37 -40 16 -40 -12 0 -36
-13 -52 -29 -64 -65 -11 -189 81 -191 37 0 85 33 99 69 8 17 18 28 23 25 5 -3
18 2 28 11 19 17 16 21 -82 126 -56 60 -105 109 -109 109 -3 0 -14 -9 -24 -20z
m110 -155 c44 -43 22 -105 -36 -105 -28 0 -69 39 -69 67 0 19 45 63 65 63 9 0
27 -11 40 -25z"/>
<path d="M662 658 c2 -14 13 -24 33 -30 57 -15 73 -68 32 -106 -39 -37 -89
-20 -99 33 -2 13 -12 21 -31 23 -43 5 -37 -40 12 -89 33 -34 45 -39 83 -39 56
0 93 27 109 79 21 70 -40 151 -114 151 -23 0 -28 -4 -25 -22z"/>
<path d="M818 466 l-57 -91 22 -17 c12 -10 24 -18 27 -18 3 0 22 28 42 63 21
34 47 76 58 93 l19 30 -27 16 -27 15 -57 -91z"/>
<path d="M2024 526 c-29 -13 -74 -59 -74 -76 0 -4 9 -10 20 -13 14 -3 30 4 50
25 21 21 38 28 57 26 45 -5 36 -21 -37 -63 -38 -22 -70 -43 -70 -46 0 -16 73
-69 96 -69 40 0 93 30 109 61 26 49 19 97 -19 135 -38 38 -77 44 -132 20z
m116 -109 c0 -33 -32 -59 -67 -55 -39 4 -35 25 12 52 51 31 55 31 55 3z"/>
<path d="M911 367 c-24 -67 -46 -127 -48 -133 -2 -6 8 -14 22 -18 22 -6 39 4
106 60 44 36 82 64 83 62 2 -1 12 -48 22 -103 17 -86 23 -101 44 -112 24 -12
25 -12 73 123 27 75 47 137 45 139 -2 2 -15 6 -29 10 -26 6 -27 4 -50 -69 -13
-42 -26 -76 -30 -76 -4 0 -12 28 -18 63 -23 119 -27 121 -113 46 -33 -28 -61
-49 -63 -47 -2 2 10 39 27 82 26 65 29 79 17 87 -34 21 -44 9 -88 -114z"/>
<path d="M1864 448 l-22 -10 25 -64 c24 -61 24 -66 9 -89 -9 -14 -23 -25 -32
-25 -11 0 -14 -6 -9 -22 4 -13 10 -26 14 -30 8 -9 34 11 49 37 9 18 11 18 17
4 5 -14 11 -15 34 -6 l27 10 -37 101 c-20 55 -41 101 -46 102 -4 2 -18 -2 -29
-8z"/>
<path d="M1706 395 c-19 -20 -20 -26 -3 -49 26 -36 84 4 61 42 -15 23 -38 26
-58 7z"/>
<path d="M713 314 c-14 -37 41 -71 66 -40 9 11 10 20 1 35 -13 25 -58 28 -67
5z"/>
</g>
</svg>
